<?xml version="1.0" encoding="utf-8"?>
<svg xmlns="http://www.w3.org/2000/svg" xmlns:xlink="http://www.w3.org/1999/xlink" style="margin: auto; background: none; display: block; shape-rendering: auto;" width="78px" height="78px" viewBox="0 0 100 100" preserveAspectRatio="xMidYMid">
<g transform="rotate(0 50 50)">
  <rect x="46.5" y="24.5" rx="3.5" ry="5.5" width="7" height="11" fill="#1a825a">
    <animate attributeName="opacity" values="1;0" keyTimes="0;1" dur="0.8849557522123893s" begin="-0.8045052292839903s" repeatCount="indefinite"></animate>
  </rect>
</g><g transform="rotate(32.72727272727273 50 50)">
  <rect x="46.5" y="24.5" rx="3.5" ry="5.5" width="7" height="11" fill="#1a825a">
    <animate attributeName="opacity" values="1;0" keyTimes="0;1" dur="0.8849557522123893s" begin="-0.7240547063555912s" repeatCount="indefinite"></animate>
  </rect>
</g><g transform="rotate(65.45454545454545 50 50)">
  <rect x="46.5" y="24.5" rx="3.5" ry="5.5" width="7" height="11" fill="#1a825a">
    <animate attributeName="opacity" values="1;0" keyTimes="0;1" dur="0.8849557522123893s" begin="-0.6436041834271922s" repeatCount="indefinite"></animate>
  </rect>
</g><g transform="rotate(98.18181818181819 50 50)">
  <rect x="46.5" y="24.5" rx="3.5" ry="5.5" width="7" height="11" fill="#1a825a">
    <animate attributeName="opacity" values="1;0" keyTimes="0;1" dur="0.8849557522123893s" begin="-0.5631536604987932s" repeatCount="indefinite"></animate>
  </rect>
</g><g transform="rotate(130.9090909090909 50 50)">
  <rect x="46.5" y="24.5" rx="3.5" ry="5.5" width="7" height="11" fill="#1a825a">
    <animate attributeName="opacity" values="1;0" keyTimes="0;1" dur="0.8849557522123893s" begin="-0.4827031375703941s" repeatCount="indefinite"></animate>
  </rect>
</g><g transform="rotate(163.63636363636363 50 50)">
  <rect x="46.5" y="24.5" rx="3.5" ry="5.5" width="7" height="11" fill="#1a825a">
    <animate attributeName="opacity" values="1;0" keyTimes="0;1" dur="0.8849557522123893s" begin="-0.40225261464199513s" repeatCount="indefinite"></animate>
  </rect>
</g><g transform="rotate(196.36363636363637 50 50)">
  <rect x="46.5" y="24.5" rx="3.5" ry="5.5" width="7" height="11" fill="#1a825a">
    <animate attributeName="opacity" values="1;0" keyTimes="0;1" dur="0.8849557522123893s" begin="-0.3218020917135961s" repeatCount="indefinite"></animate>
  </rect>
</g><g transform="rotate(229.0909090909091 50 50)">
  <rect x="46.5" y="24.5" rx="3.5" ry="5.5" width="7" height="11" fill="#1a825a">
    <animate attributeName="opacity" values="1;0" keyTimes="0;1" dur="0.8849557522123893s" begin="-0.24135156878519706s" repeatCount="indefinite"></animate>
  </rect>
</g><g transform="rotate(261.8181818181818 50 50)">
  <rect x="46.5" y="24.5" rx="3.5" ry="5.5" width="7" height="11" fill="#1a825a">
    <animate attributeName="opacity" values="1;0" keyTimes="0;1" dur="0.8849557522123893s" begin="-0.16090104585679804s" repeatCount="indefinite"></animate>
  </rect>
</g><g transform="rotate(294.54545454545456 50 50)">
  <rect x="46.5" y="24.5" rx="3.5" ry="5.5" width="7" height="11" fill="#1a825a">
    <animate attributeName="opacity" values="1;0" keyTimes="0;1" dur="0.8849557522123893s" begin="-0.08045052292839902s" repeatCount="indefinite"></animate>
  </rect>
</g><g transform="rotate(327.27272727272725 50 50)">
  <rect x="46.5" y="24.5" rx="3.5" ry="5.5" width="7" height="11" fill="#1a825a">
    <animate attributeName="opacity" values="1;0" keyTimes="0;1" dur="0.8849557522123893s" begin="0s" repeatCount="indefinite"></animate>
  </rect>
</g>
<!-- [ldio] generated by https://loading.io/ --></svg>