<svg width="19" height="20" viewBox="0 0 19 20" fill="none" xmlns="http://www.w3.org/2000/svg">
<path fill-rule="evenodd" clip-rule="evenodd" d="M17.1425 14.9722L16.5938 14.5883C17.5992 13.1082 18.1305 11.3713 18.1305 9.56652C18.1305 4.68071 14.2135 0.705768 9.39851 0.705768C7.77551 0.705768 6.19151 1.16069 4.81784 2.0215L4.46751 1.44583C5.94651 0.5194 7.65184 0.0292969 9.39851 0.0292969C14.5808 0.0292969 18.7972 4.30764 18.7972 9.56652C18.7972 11.5093 18.2252 13.3788 17.1425 14.9722ZM9.39854 19.1032C4.21621 19.1032 -0.00012207 14.8252 -0.00012207 9.56631C-0.00012207 7.6793 0.542211 5.85452 1.56821 4.28984L2.12321 4.66461C1.17021 6.11767 0.666545 7.8129 0.666545 9.56631C0.666545 14.4521 4.58388 18.4267 9.39854 18.4267C11.2222 18.4267 12.9685 17.8626 14.4499 16.7947L14.8359 17.3464C13.2415 18.4957 11.3612 19.1032 9.39854 19.1032ZM17.9319 18.7035C17.9969 18.7695 18.0822 18.8026 18.1676 18.8026C18.2529 18.8026 18.3382 18.7695 18.4032 18.7035C18.5336 18.5713 18.5336 18.3575 18.4032 18.2252L0.865246 0.429328C0.734913 0.297078 0.523913 0.297078 0.393913 0.429328C0.26358 0.56124 0.26358 0.775343 0.393913 0.907593L17.9319 18.7035Z" fill="#6E6E6E"/>
</svg>
