<svg width="23" height="23" viewBox="0 0 23 23" fill="none" xmlns="http://www.w3.org/2000/svg">
<path fill-rule="evenodd" clip-rule="evenodd" d="M11.2173 5.93198H11.7827V0.338257H11.2173V5.93198ZM11.5 7.65314C9.47364 7.65314 7.82493 9.32609 7.82493 11.3823C7.82493 13.4385 9.47364 15.1114 11.5 15.1114C13.5264 15.1114 15.1751 13.4385 15.1751 11.3823C15.1751 9.32609 13.5264 7.65314 11.5 7.65314ZM11.5 15.6852C9.16183 15.6852 7.25954 13.7549 7.25954 11.3823C7.25954 9.00968 9.16183 7.07942 11.5 7.07942C13.8383 7.07942 15.7405 9.00968 15.7405 11.3823C15.7405 13.7549 13.8383 15.6852 11.5 15.6852ZM11.7827 23H11.2173V16.8326H11.7827V23ZM0.333374 11.956H5.84603V11.3823H0.333374V11.956ZM22.6667 11.956H16.8714V11.3823H22.6667V11.956ZM7.48371 7.42566L3.68676 3.57287L4.0865 3.16725L7.88345 7.02004L7.48371 7.42566ZM15.5406 15.601L19.4789 19.5972L19.8786 19.1916L15.9403 15.1954L15.5406 15.601ZM3.80392 19.5972L3.40418 19.1916L7.05978 15.4823L7.45951 15.8879L3.80392 19.5972ZM15.258 7.16347L15.6577 7.56909L19.596 3.57287L19.1963 3.16725L15.258 7.16347Z" fill="#6E6E6E"/>
</svg>
